<?xml version="1.0" standalone="no"?>
<svg viewBox="0 0 200 200" xmlns="http://www.w3.org/2000/svg">
  <path fill="#000000" d="M34.2,-59.9C43.5,-53.9,49.6,-43.1,53.9,-32.3C58.2,-21.5,60.6,-10.7,62.3,1C63.9,12.7,64.9,25.4,60,35C55,44.6,44.2,51.1,33.2,56.5C22.2,62,11.1,66.4,-1.9,69.6C-14.8,72.8,-29.6,74.9,-40,69.1C-50.4,63.3,-56.4,49.7,-61.2,36.9C-66,24,-69.6,12,-72.3,-1.6C-75.1,-15.2,-77,-30.4,-70.1,-39.5C-63.2,-48.7,-47.4,-51.7,-34.3,-55.5C-21.1,-59.3,-10.6,-63.7,1,-65.4C12.5,-67,24.9,-65.9,34.2,-59.9Z" transform="translate(100 100)" />
</svg>
